<svg width="14" height="14" viewBox="0 0 14 14" fill="none" xmlns="http://www.w3.org/2000/svg">
<path d="M10 1H4.00001C2.34316 1 1.00001 2.34315 1.00001 4V10C1.00001 11.6569 2.34316 13 4.00001 13H10C11.6569 13 13 11.6569 13 10V4C13 2.34315 11.6569 1 10 1Z" stroke="white" stroke-width="1.5"/>
<path d="M9.40003 6.62218C9.47408 7.12153 9.38879 7.63151 9.15629 8.07959C8.92379 8.52767 8.55592 8.89103 8.10501 9.11798C7.6541 9.34494 7.1431 9.42394 6.6447 9.34374C6.14631 9.26354 5.68589 9.02823 5.32894 8.67128C4.97198 8.31432 4.73667 7.85391 4.65647 7.35551C4.57627 6.85711 4.65527 6.34612 4.88223 5.89521C5.10919 5.44429 5.47254 5.07643 5.92062 4.84393C6.3687 4.61143 6.87869 4.52613 7.37803 4.60018C7.88739 4.67571 8.35894 4.91306 8.72305 5.27716C9.08715 5.64127 9.3245 6.11283 9.40003 6.62218Z" stroke="white" stroke-width="1.5" stroke-linecap="round" stroke-linejoin="round"/>
</svg>
